HIERARCHY
ROOT root
{
	OFFSET	0	13.1	24.9
	CHANNELS 6  Xposition Yposition Zposition Xrotation Yrotation Zrotation
	JOINT spine_1
	{
		OFFSET	0	9.99999	0
		CHANNELS 3  Xrotation Yrotation Zrotation
		JOINT spine_2
		{
			OFFSET	0	112	-10
			CHANNELS 3  Xrotation Yrotation Zrotation
			JOINT spine_3
			{
				OFFSET	0	206.5	19.3
				CHANNELS 3  Xrotation Yrotation Zrotation
				JOINT spine_4
				{
					OFFSET	0	110.4	14.6
					CHANNELS 3  Xrotation Yrotation Zrotation
					JOINT neck_1
					{
						OFFSET	0	71.8	-50.3
						CHANNELS 3  Xrotation Yrotation Zrotation
						JOINT neck_2
						{
							OFFSET	0	86.2	-25.8
							CHANNELS 3  Xrotation Yrotation Zrotation
							JOINT head_ee
							{
								OFFSET	0	179.8	-8.7
								CHANNELS 3  Xrotation Yrotation Zrotation
								End Site
								{
									OFFSET	1	0	0
								}
							}
						}
					}
					JOINT left_clavicle
					{
						OFFSET	-43.2	22.4	-70.8
						CHANNELS 3  Xrotation Yrotation Zrotation
						JOINT left_shoulder
						{
							OFFSET	-93.9	-5.79999	48.7
							CHANNELS 3  Xrotation Yrotation Zrotation
							JOINT left_elbow
							{
								OFFSET	-291.4	-30.8	15.2
								CHANNELS 3  Xrotation Yrotation Zrotation
								JOINT left_lowarm_twist
								{
									OFFSET	-110.7	-3.89999	13.6
									CHANNELS 3  Xrotation Yrotation Zrotation
									JOINT left_hand
									{
										OFFSET	-110.7	-3.89999	13.6
										CHANNELS 3  Xrotation Yrotation Zrotation
										JOINT left_ee
										{
											OFFSET	-80.8	-5.10001	12.1
											CHANNELS 3  Xrotation Yrotation Zrotation
											End Site
											{
												OFFSET	1	0	0
											}
										}
									}
								}
							}
						}
					}
					JOINT right_clavicle
					{
						OFFSET	43.2	22.4	-70.8
						CHANNELS 3  Xrotation Yrotation Zrotation
						JOINT right_shoulder
						{
							OFFSET	93.9	-5.79999	48.7
							CHANNELS 3  Xrotation Yrotation Zrotation
							JOINT right_elbow
							{
								OFFSET	291.4	-30.8	15.2
								CHANNELS 3  Xrotation Yrotation Zrotation
								JOINT right_lowarm_twist
								{
									OFFSET	110.7	-3.89999	13.6
									CHANNELS 3  Xrotation Yrotation Zrotation
									JOINT right_hand
									{
										OFFSET	110.7	-3.89999	13.6
										CHANNELS 3  Xrotation Yrotation Zrotation
										JOINT right_ee
										{
											OFFSET	80.8	-5.10001	12.1
											CHANNELS 3  Xrotation Yrotation Zrotation
											End Site
											{
												OFFSET	1	0	0
											}
										}
									}
								}
							}
						}
					}
				}
			}
		}
	}
	JOINT left_hip
	{
		OFFSET	-82.8	-127.5	0.300001
		CHANNELS 3  Xrotation Yrotation Zrotation
		JOINT left_knee
		{
			OFFSET	-28.2	-396.7	2.2
			CHANNELS 3  Xrotation Yrotation Zrotation
			JOINT left_ankle
			{
				OFFSET	-11.7	-411.3	35.4
				CHANNELS 3  Xrotation Yrotation Zrotation
				JOINT left_toes
				{
					OFFSET	0	-60	-88.6
					CHANNELS 3  Xrotation Yrotation Zrotation
					JOINT left_foot_ee
					{
						OFFSET	-22.5	-16.5	-42.2
						CHANNELS 3  Xrotation Yrotation Zrotation
						End Site
						{
							OFFSET	1	0	0
						}
					}
				}
			}
		}
	}
	JOINT right_hip
	{
		OFFSET	82.8	-127.5	0.300001
		CHANNELS 3  Xrotation Yrotation Zrotation
		JOINT right_knee
		{
			OFFSET	28.2	-396.7	2.2
			CHANNELS 3  Xrotation Yrotation Zrotation
			JOINT right_ankle
			{
				OFFSET	11.7	-411.3	35.4
				CHANNELS 3  Xrotation Yrotation Zrotation
				JOINT right_toes
				{
					OFFSET	0	-60	-88.6
					CHANNELS 3  Xrotation Yrotation Zrotation
					JOINT right_foot_ee
					{
						OFFSET	22.5	-16.5	-42.2
						CHANNELS 3  Xrotation Yrotation Zrotation
						End Site
						{
							OFFSET	1	0	0
						}
					}
				}
			}
		}
	}
}
MOTION
Frames: 9
Frame Time: 0.02
1739.57 669.845 -1139.43 170.102 -61.1644 171.364 -1.71505 -0.321898 -1.71812 -1.71344 -0.211934 -1.73511 -1.70532 0.209247 -1.73544 -1.70952 -0.0674157 -1.7467 -0.748848 9.36505 -1.61429 -0.506573 18.086 -0.671667 -0.0 0.0 -0.0 6.58317 -10.9747 12.4612 3.73957 -39.3944 57.4957 1.4365 -35.4336 0.458933 46.8428 -0.752169 -5.77216 -1.24667 -28.6382 -20.2994 -0.0 0.0 -0.0 5.28537 14.9899 -9.45428 -41.8258 44.866 -62.6435 0.68342 18.7034 -0.112549 -66.3205 6.07762 -5.25409 -6.18948 22.3375 58.9642 0.0 0.0 0.0 -15.2832 -11.0388 7.19539 -16.4504 0.321013 2.49541 -18.0317 26.7267 2.84801 -8.01408 0.0 0.0 -0.0 0.0 -0.0 30.6216 61.6901 -16.3713 -9.98652 -0.28061 -1.50499 25.7686 -25.8859 3.62198 40.1592 -0.0 -0.0 0.0 0.0 0.0 
1760.23 675.531 -1131.42 171.145 -61.7059 173.442 -1.58902 -0.527233 -1.97348 -1.58694 -0.400613 -2.00301 -1.57058 0.0852385 -2.04088 -1.57632 -0.238083 -2.02875 -0.769032 10.0404 -2.20349 -0.467716 19.773 -1.23128 -0.0 0.0 -0.0 7.31743 -11.9339 13.979 0.564147 -39.3717 57.635 1.22542 -31.258 0.342824 48.8897 -0.890475 -5.9947 -0.759825 -28.5355 -17.0223 -0.0 0.0 -0.0 5.50618 15.9837 -9.85354 -41.3108 44.6276 -63.2635 0.797096 21.5469 -0.151674 -65.8713 6.02064 -5.24613 -6.28407 21.2263 59.6956 0.0 0.0 0.0 -10.923 -11.2437 8.37852 -21.2793 0.278241 3.23488 -23.6219 26.8651 3.74067 -4.17334 0.0 0.0 -0.0 0.0 -0.0 28.5608 61.888 -15.0818 -7.19118 -0.228595 -1.07924 23.5548 -21.9976 3.2756 40.1785 -0.0 -0.0 0.0 0.0 0.0 
1774.21 681.47 -1119.11 173.633 -61.2859 175.774 -1.37118 -0.491806 -1.95446 -1.36913 -0.366467 -1.98178 -1.35432 0.105806 -2.01259 -1.35991 -0.213308 -2.00405 1.53869 10.4642 -2.56649 1.98248 20.5936 -1.96967 -0.0 0.0 -0.0 8.27392 -13.2524 15.98 -3.54259 -39.2375 56.6451 1.05722 -27.6411 0.260089 52.3004 -1.13837 -6.35421 -0.573633 -23.4885 -13.7898 -0.0 0.0 -0.0 5.8287 17.8619 -10.4044 -40.0366 44.1516 -61.4842 0.8926 23.8532 -0.188537 -64.3376 5.8266 -5.21561 -6.27692 21.5551 59.7292 0.0 0.0 0.0 -6.63907 -12.1518 6.88672 -28.2006 0.108772 4.28287 -25.8824 25.3915 4.06535 0.23294 -0.0 -0.0 -0.0 0.0 -0.0 24.5107 62.0248 -11.6012 -0.304867 -0.0124334 -0.0451329 20.0507 -18.1091 2.78795 37.2701 -0.0 -0.0 0.0 0.0 0.0 
1791.22 688.786 -1111.3 173.439 -59.8166 175.855 -1.57395 -0.363123 -2.1014 -1.57152 -0.228701 -2.12023 -1.56066 0.279787 -2.1141 -1.5669 -0.057529 -2.13175 1.25536 10.7131 -2.12461 1.67681 20.6993 -1.41574 -0.0 0.0 -0.0 8.86001 -12.3427 17.2896 -6.31816 -38.1595 56.3816 0.867055 -23.244 0.178331 53.5503 -1.23454 -6.48222 -0.249774 -20.9526 -10.5783 -0.0 0.0 -0.0 6.08124 17.9928 -10.9399 -39.9721 43.8877 -59.3012 0.948257 25.1608 -0.211625 -64.4885 5.84565 -5.21884 -6.29703 21.5781 59.98 0.0 0.0 0.0 0.443046 -11.5062 5.61504 -41.7379 -0.581018 6.23984 -25.2034 23.8271 3.92807 5.14489 -0.0 -0.0 -0.0 0.0 -0.0 22.0588 61.0972 -11.0502 0.131132 0.00542188 0.0193928 19.1769 -15.6521 2.65696 36.7386 -0.0 -0.0 0.0 0.0 0.0 
1821.81 691.284 -1090.87 173.073 -58.6552 174.929 -1.52862 -0.179636 -2.05069 -1.52628 -0.048809 -2.05796 -1.52253 0.438581 -2.0113 -1.52815 0.115501 -2.0553 0.836607 10.9765 -1.41741 1.21765 20.6335 -0.548866 -0.0 0.0 -0.0 9.73728 -10.9293 19.2431 -9.01343 -36.7574 55.673 0.641604 -17.632 0.0995102 55.02 -1.35117 -6.63003 0.206314 -17.8734 -6.22331 -0.0 0.0 -0.0 6.09457 18.2476 -10.949 -41.7729 42.6884 -55.5923 0.990671 26.1389 -0.229985 -64.5202 5.84966 -5.21952 -6.32797 21.7044 60.4017 0.0 0.0 0.0 11.049 -10.1973 5.45534 -62.1157 -2.43272 8.75432 -22.4016 21.6805 3.45825 12.1625 -0.0 -0.0 -0.0 0.0 -0.0 19.2091 59.7416 -11.1797 0.471132 0.0196869 0.0696178 17.8098 -12.2911 2.46488 36.028 -0.0 -0.0 0.0 0.0 0.0 
1830.96 694.623 -1083.3 173.879 -59.2378 175.773 -1.52466 -0.14074 -1.91526 -1.52262 -0.0186051 -1.92033 -1.52029 0.435349 -1.87045 -1.52515 0.13454 -1.91571 0.962975 10.6416 -1.33728 1.32286 19.9574 -0.506961 -0.0 0.0 -0.0 9.88837 -8.99013 19.6005 -9.43291 -36.8131 55.7544 0.612538 -16.8797 0.0908877 54.4895 -1.30863 -6.57701 0.0368874 -16.5627 -6.80267 -0.0 0.0 -0.0 6.63808 18.5919 -12.1007 -41.2694 41.9883 -53.5729 0.975523 25.7915 -0.223353 -63.9594 5.77887 -5.20728 -6.32642 21.7979 60.4158 0.0 0.0 0.0 12.6487 -9.15946 4.78231 -63.0279 -2.53566 8.85034 -22.817 20.8258 3.51086 13.321 -0.0 -0.0 -0.0 0.0 -0.0 18.3078 57.6286 -11.8834 0.790464 0.0333559 0.116714 16.8531 -12.1644 2.34136 35.1025 -0.0 -0.0 0.0 0.0 0.0 
1840.96 696.433 -1069.47 172.922 -59.8716 175.606 -1.58464 -0.136595 -1.77202 -1.58289 -0.0235781 -1.77712 -1.58067 0.398504 -1.73204 -1.58483 0.120005 -1.77322 1.14053 10.0952 -1.17919 1.46432 18.8369 -0.402074 -0.0 0.0 -0.0 10.1285 -6.20942 20.115 -10.0611 -36.951 56.0635 0.576283 -15.9328 0.0806473 53.3793 -1.22122 -6.46483 -0.109351 -15.4685 -7.32369 -0.0 0.0 -0.0 7.43047 19.0171 -13.7949 -40.3386 41.2463 -51.2115 0.976248 25.8081 -0.223669 -63.1588 5.678 -5.18861 -6.32192 22.0541 60.4506 0.0 0.0 0.0 14.4988 -7.69458 3.12336 -64.3074 -2.68262 8.98228 -23.7059 19.7456 3.63375 14.8489 -0.0 -0.0 -0.0 0.0 -0.0 15.7068 54.8556 -10.2594 1.06862 0.0454772 0.157676 15.8665 -12.2692 2.21348 33.9074 -0.0 -0.0 0.0 0.0 0.0 
1858.31 695.322 -1060.29 172.54 -60.8368 174.793 -1.79674 -0.130217 -1.56095 -1.79539 -0.0306381 -1.56607 -1.79331 0.347245 -1.52741 -1.79655 0.101693 -1.56307 1.37199 9.28415 -1.00239 1.64664 17.2285 -0.301711 -0.0 0.0 -0.0 10.1623 -2.35258 20.0938 -11.0823 -37.1453 56.1457 0.529297 -14.6923 0.0682385 51.7485 -1.09681 -6.29704 -0.294246 -14.0681 -7.98069 -0.0 0.0 -0.0 8.46132 19.5325 -16.0193 -39.1647 40.1118 -47.6778 0.970248 25.67 -0.221063 -62.0147 5.53432 -5.15947 -6.31013 22.425 60.4337 0.0 0.0 0.0 16.6134 -6.12157 0.0887646 -65.3129 -2.80016 9.08365 -24.9503 18.094 3.8044 17.0237 -0.0 -0.0 -0.0 0.0 -0.0 12.6928 50.8363 -8.42954 1.50287 0.0647978 0.221507 14.5947 -12.3965 2.04665 32.2683 -0.0 -0.0 0.0 0.0 0.0 
1869.3 707.94 -1049.36 172.201 -62.2008 174.068 -2.18609 -0.220582 -1.41819 -2.18498 -0.129901 -1.42935 -2.18049 0.22753 -1.41709 -2.1833 0.000895655 -1.43524 1.25625 8.3022 -0.402249 1.45298 15.0052 0.292848 -0.0 0.0 -0.0 9.60982 2.32132 18.737 -13.8203 -37.1748 55.433 0.466242 -13.0053 0.0531438 49.3625 -0.923549 -6.0454 -0.272781 -14.2013 -7.89165 -0.0 0.0 -0.0 9.08939 19.7353 -17.3933 -36.9078 39.4475 -45.2324 0.902017 24.0764 -0.192362 -60.4974 5.34467 -5.1164 -6.29632 23.0124 60.4595 0.0 0.0 0.0 19.3678 -3.33246 -2.42836 -66.7471 -2.97087 9.22467 -25.782 16.2425 3.91169 20.1074 -0.0 -0.0 -0.0 0.0 -0.0 10.2224 45.5787 -7.6006 2.10405 0.0923453 0.309638 13.4018 -13.7743 1.89222 30.3014 -0.0 -0.0 0.0 0.0 0.0 
